<svg xmlns="http://www.w3.org/2000/svg" viewBox="0 0 256 256"><defs><style>.a6ec704b-5857-44d9-84eb-a07bb03d98ef{fill:#fff;}.f973f8ac-cc78-48f6-a716-863e1670160f{fill:none;}</style></defs><title>copy-hover</title><g id="bf271548-dbe1-4b13-94fd-202796d8c05c" data-name="Capa 1"><path class="a6ec704b-5857-44d9-84eb-a07bb03d98ef" d="M216.35783,39.71668A25.283,25.283,0,0,0,197.67872,32a25.99244,25.99244,0,0,0-18.849,7.63267L154.88631,63.71753a24.59179,24.59179,0,0,0-7.30179,13.99309,26.101,26.101,0,0,0,1.86785,15.34992l-8.32067,8.31095a27.09937,27.09937,0,0,0-29.547,5.42758L87.64132,130.88393A25.36433,25.36433,0,0,0,80,149.54063a25.6454,25.6454,0,0,0,7.64161,18.74213A25.28194,25.28194,0,0,0,106.3207,176a25.701,25.701,0,0,0,18.849-7.8021l23.94341-23.91543a25.3645,25.3645,0,0,0,7.30179-14.07766A26.55065,26.55065,0,0,0,154.54706,114.77l8.32067-8.14151a26.74721,26.74721,0,0,0,29.547-5.5973l23.94341-23.91543A25.3597,25.3597,0,0,0,224,58.45852,25.64417,25.64417,0,0,0,216.35783,39.71668Zm-75.90548,95.9157-23.94341,24.08486a14.28119,14.28119,0,1,1-20.20771-20.18466l23.94341-24.08485a13.90817,13.90817,0,0,1,10.1891-4.23933,5.00217,5.00217,0,0,1,.849.16971L120.0753,122.403a9.09655,9.09655,0,0,0-2.71682,6.69956,9.38216,9.38216,0,0,0,2.71682,6.78441,8.97987,8.97987,0,0,0,6.7074,2.79765,8.84994,8.84994,0,0,0,6.70739-2.88336l11.20741-11.02488A13.702,13.702,0,0,1,140.45235,135.63238Zm67.24556-67.16554-23.9437,24.08485a13.44456,13.44456,0,0,1-11.03778,4.07076l11.20741-11.02488a9.67267,9.67267,0,0,0,2.71711-6.86926,9.488,9.488,0,0,0-16.13105-6.69956l-11.208,11.19431a13.70277,13.70277,0,0,1,4.24458-10.85517L187.49021,48.283a14.3486,14.3486,0,0,1,24.45227,10.09176A13.77324,13.77324,0,0,1,207.69791,68.46684Z"/></g><g id="bc17475e-eddb-4e05-a8dd-a6f2524b6cf3" data-name="Layer 2"><path class="f973f8ac-cc78-48f6-a716-863e1670160f" d="M163.8,66.2H66.2v97.6a26,26,0,0,0,26,26h97.6V92.2A26,26,0,0,0,163.8,66.2Z"/><path class="f973f8ac-cc78-48f6-a716-863e1670160f" d="M18.2,92.2V211.8a26,26,0,0,0,26,26H163.8a26,26,0,0,0,26-26V208H79.2A31.2,31.2,0,0,1,48,176.8V66.2H44.2A26,26,0,0,0,18.2,92.2Z"/><path class="f973f8ac-cc78-48f6-a716-863e1670160f" d="M211.8,18.2H92.2a26,26,0,0,0-26,26V48H182a26,26,0,0,1,26,26V189.8h3.8a26,26,0,0,0,26-26V44.2A26,26,0,0,0,211.8,18.2Z"/><path class="a6ec704b-5857-44d9-84eb-a07bb03d98ef" d="M189.8,211.8a26,26,0,0,1-26,26H44.2a26,26,0,0,1-26-26V92.2a26,26,0,0,1,26-26H48V48H26A26,26,0,0,0,0,74V230a26.00012,26.00012,0,0,0,26,26H182a26,26,0,0,0,26-26V208H189.8Z"/><path class="a6ec704b-5857-44d9-84eb-a07bb03d98ef" d="M224.8,0H79.2A31.2,31.2,0,0,0,48,31.2V176.8A31.2,31.2,0,0,0,79.2,208H224.8A31.2,31.2,0,0,0,256,176.8V31.2A31.2,31.2,0,0,0,224.8,0Zm13,163.8a26,26,0,0,1-26,26H92.2a26,26,0,0,1-26-26V44.2a26,26,0,0,1,26-26H211.8a26,26,0,0,1,26,26Z"/></g></svg>