<svg id="bc0a7b54-9ec1-41fd-9732-87a6066fff2e" data-name="Layer 1" xmlns="http://www.w3.org/2000/svg" viewBox="0 0 1024 1024"><defs><style>.ead12bdf-9ce1-4f60-ae73-0b9f70b30157{fill:none;}.ba59ab76-2eb6-41a4-b527-75e9a53ae02f{fill:#4267b2;}</style></defs><title>fb-hover</title><path class="ead12bdf-9ce1-4f60-ae73-0b9f70b30157" d="M967.48,0h-911A56.51,56.51,0,0,0,0,56.52v911A56.51,56.51,0,0,0,56.52,1024H547V628H414V473H547V358.93c0-132.26,80.77-204.28,198.76-204.28,56.51,0,105.08,4.21,119.24,6.09V299H783.63c-64.2,0-76.63,30.51-76.63,75.28V473H860.49l-20,155H707v396H967.48A56.51,56.51,0,0,0,1024,967.5V56.48A56.51,56.51,0,0,0,967.48,0Z" transform="translate(0 0)"/><path id="ea243104-fad8-4309-a43c-c4799f53307b" data-name="f" class="ba59ab76-2eb6-41a4-b527-75e9a53ae02f" d="M707,1024V628H840.5l20-155H707V374.28c0-44.77,12.43-75.28,76.63-75.28H865V160.74c-14.16-1.88-62.73-6.09-119.24-6.09-118,0-198.76,72-198.76,204.28V473H414V628H547v396Z" transform="translate(0 0)"/></svg>