<svg id="b0b5426f-5d4d-42b3-bd7c-41484b4ec083" data-name="Logo FIXED" xmlns="http://www.w3.org/2000/svg" viewBox="0 0 400 400"><defs><style>.a85893a7-954b-49ca-9bfe-9cbcf6c905d2{fill:none;}.e305fe0c-0bef-467c-b765-c1b0cece01ff{fill:#484e4e;}</style></defs><title>tw</title><rect class="a85893a7-954b-49ca-9bfe-9cbcf6c905d2" width="400" height="400"/><path class="e305fe0c-0bef-467c-b765-c1b0cece01ff" d="M153.62,301.59c94.34,0,145.94-78.16,145.94-145.94,0-2.22,0-4.43-.15-6.63A104.36047,104.36047,0,0,0,325,122.47a102.38,102.38,0,0,1-29.46,8.07,51.47008,51.47008,0,0,0,22.55-28.37,102.78993,102.78993,0,0,1-32.57,12.45,51.34,51.34,0,0,0-87.41,46.78A145.62,145.62,0,0,1,92.4,107.81a51.33,51.33,0,0,0,15.88,68.47A50.91,50.91,0,0,1,85,169.86v.65a51.31,51.31,0,0,0,41.15,50.28,51.20987,51.20987,0,0,1-23.16.88,51.35,51.35,0,0,0,47.92,35.62,102.91994,102.91994,0,0,1-63.7,22A104.41236,104.41236,0,0,1,75,278.55a145.21,145.21,0,0,0,78.62,23"/></svg>