<svg id="bf9d81e1-1d9f-484b-b116-0427993beba4" data-name="Layer 3" xmlns="http://www.w3.org/2000/svg" viewBox="0 0 256 256"><defs><style>.bb18aa04-efa4-484a-845e-c666dd350e3d{fill:#fff;}</style></defs><title>cart-hover</title><polygon class="bb18aa04-efa4-484a-845e-c666dd350e3d" points="215.979 0 208 27.789 176 138.947 48 138.947 8.277 0 0 0 48 176 176 176 216 27.789 256 27.789 256 0 215.979 0"/><path class="bb18aa04-efa4-484a-845e-c666dd350e3d" d="M76.03191,184a36,36,0,1,0,36.03192,36A36.01595,36.01595,0,0,0,76.03191,184Zm0,63a27,27,0,1,1,27.02394-27A27.012,27.012,0,0,1,76.03191,247Z"/><path class="bb18aa04-efa4-484a-845e-c666dd350e3d" d="M156.15957,184a36,36,0,1,0,36.03192,36A36.01595,36.01595,0,0,0,156.15957,184Zm0,63a27,27,0,1,1,27.02394-27A27.012,27.012,0,0,1,156.15957,247Z"/><rect class="bb18aa04-efa4-484a-845e-c666dd350e3d" x="32" y="96" width="160" height="8"/><rect class="bb18aa04-efa4-484a-845e-c666dd350e3d" x="16" y="48" width="192" height="8"/></svg>