<svg id="b587e181-0cd7-48f5-b371-87e149da9481" data-name="Layer 3" xmlns="http://www.w3.org/2000/svg" viewBox="0 0 256 256"><defs><style>.a8b0ad98-156c-4ba9-8e66-f13018f1c4a7{fill:#9bb8b8;}</style></defs><title>cart</title><polygon class="a8b0ad98-156c-4ba9-8e66-f13018f1c4a7" points="215.979 0 208 27.789 176 138.947 48 138.947 8.277 0 0 0 48 176 176 176 216 27.789 256 27.789 256 0 215.979 0"/><path class="a8b0ad98-156c-4ba9-8e66-f13018f1c4a7" d="M76.03191,184a36,36,0,1,0,36.03192,36A36.01595,36.01595,0,0,0,76.03191,184Zm0,63a27,27,0,1,1,27.02394-27A27.012,27.012,0,0,1,76.03191,247Z"/><path class="a8b0ad98-156c-4ba9-8e66-f13018f1c4a7" d="M156.15957,184a36,36,0,1,0,36.03192,36A36.01595,36.01595,0,0,0,156.15957,184Zm0,63a27,27,0,1,1,27.02394-27A27.012,27.012,0,0,1,156.15957,247Z"/><rect class="a8b0ad98-156c-4ba9-8e66-f13018f1c4a7" x="32" y="96" width="160" height="8"/><rect class="a8b0ad98-156c-4ba9-8e66-f13018f1c4a7" x="16" y="48" width="192" height="8"/></svg>