<?xml version="1.0" encoding="utf-8"?>
<!-- Generator: Adobe Illustrator 23.0.3, SVG Export Plug-In . SVG Version: 6.00 Build 0)  -->
<svg version="1.2" baseProfile="tiny" xmlns="http://www.w3.org/2000/svg" xmlns:xlink="http://www.w3.org/1999/xlink" x="0px"
	 y="0px" viewBox="0 0 256 256" xml:space="preserve">
<g id="Download">
	<path fill-rule="evenodd" fill="#484e4e" d="M118.4,32v112.3L80,101.8v30l48,53.1l48-53.1v-30l-38.4,42.5V32H118.4z"/>
</g>
<g id="Layer_2">
	<path fill-rule="evenodd" fill="#484e4e" d="M176,44.8V64c19.4,14.6,32,37.8,32,64c0,44.2-35.8,80-80,80s-80-35.8-80-80
		c0-26.2,12.6-49.4,32-64V44.8C51.3,61.4,32,92.5,32,128c0,53,43,96,96,96s96-43,96-96C224,92.5,204.7,61.4,176,44.8z"/>
</g>
</svg>
