<svg id="Слой_1" data-name="Слой 1" xmlns="http://www.w3.org/2000/svg" viewBox="0 0 113.59995 112.8"><defs><style>.cls-1{fill:#222221;}</style></defs><title>logo_gpu_audio (2)</title><path class="cls-1" d="M22.5,8.8v6.7l7.3-3.6V5.6a5.20288,5.20288,0,0,0-1.6-4,5.58431,5.58431,0,0,0-4-1.6H5.4a5.20287,5.20287,0,0,0-4,1.6,5.58425,5.58425,0,0,0-1.6,4V67a5.20291,5.20291,0,0,0,1.6,4,5.58432,5.58432,0,0,0,4,1.6H24.2a5.20285,5.20285,0,0,0,4-1.6,5.58426,5.58426,0,0,0,1.6-4V21.7L15.3,28.8V33l7.1,2.5.1,10.3-15.9,20.7,7.4-24.2L7.2,38.6l.1-29.9A1.36706,1.36706,0,0,1,8.7,7.3H21.1A1.51987,1.51987,0,0,1,22.5,8.8Z" transform="translate(0.19995 0)"/><path class="cls-1" d="M70,42.6a5.35151,5.35151,0,0,0,1.6-4V5.6a5.20288,5.20288,0,0,0-1.6-4A5.76027,5.76027,0,0,0,66,0H42.3V72.6h7.4V44.2H66.1A5.52065,5.52065,0,0,0,70,42.6Zm-7.2-5.9H49.6V7.3H62.8a1.3671,1.3671,0,0,1,1.4,1.4V35.3A1.31191,1.31191,0,0,1,62.8,36.7Z" transform="translate(0.19995 0)"/><path class="cls-1" d="M88.3,72.6h25.1V.3L106,3.9V65.2H91.4A1.3671,1.3671,0,0,1,90,63.8V.3L82.6,3.9V67a5.20291,5.20291,0,0,0,1.6,4A5.42469,5.42469,0,0,0,88.3,72.6Z" transform="translate(0.19995 0)"/><path class="cls-1" d="M65.9,68.2V82.7h-8.6a3.62179,3.62179,0,0,0-3.8,3.8V109a3.62178,3.62178,0,0,0,3.8,3.8h14.2V65.4Zm0,39.1H60.1a1.10976,1.10976,0,0,1-1.1-1.1V89.4a1.10976,1.10976,0,0,1,1.1-1.1h5.8Z" transform="translate(0.19995 0)"/><path class="cls-1" d="M14.1,82.8H4.1C1.4,82.8,0,84.3,0,86.9v6l5.5-2.8v-.8a1.10976,1.10976,0,0,1,1.1-1.1h4.7a1.10976,1.10976,0,0,1,1.1,1.1v5.1H3.8A3.62179,3.62179,0,0,0,0,98.2v1.7H0v9a3.42419,3.42419,0,0,0,.4,1.8.09793.09793,0,0,0,.1.1c.1.1.1.3.2.4.1.2.3.3.4.5a.99821.99821,0,0,0,.5.4c.1.1.2.1.4.2a3.807,3.807,0,0,0,1.9.4h14V88.2h0V86.5A3.54393,3.54393,0,0,0,14.1,82.8Zm-1.7,24.5H6.6a1.10976,1.10976,0,0,1-1.1-1.1v-5.1A1.10976,1.10976,0,0,1,6.6,100h5.8Z" transform="translate(0.19995 0)"/><path class="cls-1" d="M28.4,112.2a3.03919,3.03919,0,0,1-1.2-1.3A15.37026,15.37026,0,0,0,28.4,112.2Z" transform="translate(0.19995 0)"/><path class="cls-1" d="M44.8,82.6v30.2H30.7a4.01256,4.01256,0,0,1-1.5-.3.3493.3493,0,0,1-.2-.1c-.1-.1-.2-.1-.3-.2a3.2503,3.2503,0,0,1-1.3-1.3c0-.1-.1-.1-.1-.2a.34915.34915,0,0,0-.1-.2,4.01235,4.01235,0,0,1-.3-1.5V86.4l5.5-2.8v22.5a1.10976,1.10976,0,0,0,1.1,1.1h5.8V85.4Z" transform="translate(0.19995 0)"/><polygon class="cls-1" points="80.9 112.8 86.4 112.8 86.4 87.5 80.9 90.3 80.9 112.8"/><polygon class="cls-1" points="80.8 87.4 86.5 84.6 86.5 78.4 80.8 81.2 80.8 87.4"/><path class="cls-1" d="M113.4,88.2V86.5a3.62179,3.62179,0,0,0-3.8-3.8H99.2a3.62178,3.62178,0,0,0-3.8,3.8V109a3.6218,3.6218,0,0,0,3.8,3.8h10.4a3.54292,3.54292,0,0,0,3.7-3.8v-1.7h0L113.4,88.2Zm-12.5,17.9V89.4a1.10977,1.10977,0,0,1,1.1-1.1h4.8a1.10976,1.10976,0,0,1,1.1,1.1v16.8a1.10976,1.10976,0,0,1-1.1,1.1H102A1.13495,1.13495,0,0,1,100.9,106.1Z" transform="translate(0.19995 0)"/></svg>