<?xml version="1.0" standalone="no"?>
<!DOCTYPE svg PUBLIC "-//W3C//DTD SVG 20010904//EN"
 "http://www.w3.org/TR/2001/REC-SVG-20010904/DTD/svg10.dtd">
<svg version="1.0" xmlns="http://www.w3.org/2000/svg"
 width="700.000000pt" height="700.000000pt" viewBox="0 0 700.000000 700.000000"
 preserveAspectRatio="xMidYMid meet">
<metadata>
Created by potrace 1.11, written by Peter Selinger 2001-2013
</metadata>
<g transform="translate(0.000000,700.000000) scale(0.100000,-0.100000)"
fill="#000000" stroke="none">
<path d="M223 6978 c-97 -32 -186 -128 -211 -228 -8 -33 -12 -565 -12 -2000 0
-2096 -2 -2011 49 -2094 33 -53 106 -113 169 -137 56 -22 63 -22 682 -24 344
0 647 3 674 8 146 26 240 124 272 282 5 25 6 2857 1 2862 -2 2 -100 -45 -218
-103 -118 -59 -317 -157 -444 -219 l-230 -112 1 -128 c0 -101 3 -130 15 -136
11 -7 211 -78 394 -141 l30 -10 3 -320 3 -320 -54 -71 c-30 -40 -92 -121 -139
-182 -158 -207 -611 -800 -691 -905 -102 -134 -98 -130 -83 -79 8 24 44 143
81 264 74 243 166 547 274 905 40 129 75 246 80 261 8 23 5 27 -47 55 -31 16
-81 43 -112 60 -76 43 -189 105 -222 122 -16 7 -28 19 -29 25 0 7 -1 428 -1
937 -1 706 2 931 11 948 7 13 23 27 37 32 15 6 194 10 419 10 225 0 404 -4
419 -10 46 -17 50 -40 51 -267 0 -116 2 -214 5 -216 3 -3 104 45 225 106 l220
112 1 210 c0 229 -9 299 -50 363 -42 66 -111 119 -189 145 -43 14 -125 16
-685 16 -616 0 -639 -1 -699 -21z"/>
<path d="M2610 4748 l0 -2253 228 0 227 0 2 485 c1 267 2 663 3 881 l0 396
528 0 c576 1 582 1 674 59 58 37 98 86 128 154 l24 55 2 1065 c0 586 -3 1091
-8 1124 -20 134 -106 230 -246 275 -21 7 -291 10 -797 11 l-765 0 0 -2252z
m1336 1767 l24 -30 0 -852 0 -852 -24 -28 -24 -28 -426 -1 -426 -1 0 369 c0
202 -1 496 -1 653 0 157 1 401 1 544 l0 258 426 -1 426 -1 24 -30z"/>
<path d="M5335 6870 c-115 -59 -215 -112 -220 -117 -7 -6 -10 -676 -9 -1999
l1 -1989 22 -56 c36 -94 137 -183 231 -205 19 -4 396 -8 838 -9 l802 -1 0
2244 c0 1234 -3 2241 -7 2239 -10 -5 -329 -160 -399 -193 l-51 -25 -1 -1892
c0 -1041 -1 -1897 -1 -1903 -1 -12 -915 -13 -942 0 -45 20 -44 -60 -44 2037 0
1089 -2 1979 -5 1978 -3 0 -99 -49 -215 -109z"/>
<path d="M4265 2864 c-82 -42 -159 -82 -171 -89 -20 -13 -21 -18 -20 -459 l1
-446 -60 0 c-472 -2 -539 -5 -585 -29 -48 -24 -89 -74 -109 -130 -8 -25 -11
-237 -10 -785 1 -701 2 -754 19 -791 27 -60 77 -107 131 -123 13 -3 234 -8
492 -9 l467 -4 0 1471 c0 808 -1 1470 -2 1470 -2 -1 -70 -35 -153 -76z m-192
-1926 c0 -321 -1 -586 -2 -590 -1 -5 -84 -8 -185 -8 -170 0 -185 1 -210 21
l-26 20 0 549 0 549 22 21 c20 19 34 20 212 20 l191 0 -2 -582z"/>
<path d="M5150 2046 l-165 -84 -2 -191 c-1 -105 0 -191 2 -191 2 0 80 38 173
84 l169 85 1 190 c0 105 -2 191 -6 191 -4 -1 -81 -38 -172 -84z"/>
<path d="M245 1859 c-123 -9 -175 -41 -216 -134 -20 -45 -22 -66 -23 -261 0
-117 2 -216 5 -219 5 -4 308 145 328 161 2 2 4 16 6 31 4 47 14 69 38 80 12 6
94 10 183 9 218 -1 204 13 204 -212 l0 -172 -291 -1 c-285 0 -291 -1 -343 -24
-55 -25 -93 -66 -116 -126 -11 -27 -14 -118 -13 -420 0 -376 1 -387 22 -432
29 -61 55 -87 110 -112 44 -19 66 -20 499 -21 250 -1 458 2 463 5 6 3 8 341 7
855 l-3 849 -26 40 c-67 100 -94 106 -459 108 -162 1 -331 -1 -375 -4z m513
-1068 c9 -1 12 -53 12 -226 l0 -225 -179 0 c-99 0 -191 4 -204 9 -37 14 -43
50 -42 233 1 146 4 170 19 187 10 11 28 21 40 23 19 3 322 2 354 -1z"/>
<path d="M2593 1787 c-89 -45 -163 -89 -165 -97 -2 -8 -3 -313 -3 -678 1 -628
0 -662 -17 -663 -23 0 -118 0 -258 0 -168 1 -150 -88 -150 753 0 389 -2 708
-4 708 -1 0 -23 -10 -47 -23 -24 -13 -99 -52 -167 -87 l-122 -63 0 -727 1
-727 27 -54 c35 -68 101 -115 175 -124 28 -3 243 -5 477 -3 l425 3 0 933 c0
512 -2 932 -5 931 -3 0 -78 -37 -167 -82z"/>
<path d="M6046 1855 c-53 -19 -85 -43 -121 -94 l-30 -43 -3 -761 c-3 -842 -4
-823 61 -887 68 -67 53 -65 477 -67 l385 -3 51 24 c55 26 99 74 115 127 15 48
22 1500 8 1555 -15 57 -63 112 -122 139 -48 23 -55 23 -416 23 -283 0 -375 -3
-405 -13z m593 -361 c21 -26 21 -36 21 -566 l0 -539 -25 -24 c-24 -25 -27 -25
-190 -25 -163 0 -166 0 -190 25 l-25 24 0 545 0 545 22 21 c20 18 34 20 194
20 l173 0 20 -26z"/>
<path d="M5153 1483 l-172 -87 0 -698 0 -698 173 0 173 0 1 785 c0 432 -1 785
-2 785 0 -1 -78 -40 -173 -87z"/>
</g>
</svg>
