<svg xmlns="http://www.w3.org/2000/svg" width="256" height="256" viewBox="0 0 256 256">
  <defs>
    <style>
      .cls-1 {
        fill: #566161;
        fill-rule: evenodd;
      }
    </style>
  </defs>
  <path id="help" class="cls-1" d="M86.249,72.795q7.214-47.388,48.439-47.388,21.122,0,34.181,12.795t13.054,32.533a40.07,40.07,0,0,1-4.809,19.145q-4.81,9.017-24.651,25.839T125.239,147.4q-7.388,14.856-7.384,46.786h30.231q0-24.209,4.81-34.6t25.935-27.9Q199.96,114.176,207.6,99.753A65.73,65.73,0,0,0,215.247,68.5q0-29.875-22.33-49.19T134.345,0q-34.189,0-56.43,19.662T52.751,72.795h33.5ZM148,225.749h-30.25V256H148V225.749Z" transform="translate(-6)"/>
</svg>
