<svg id="b7745879-51f8-4c5c-9aad-9a9c4e471292" data-name="Слой 1" xmlns="http://www.w3.org/2000/svg" viewBox="0 0 113.4 112.8"><defs><style>.a0c85893-5e41-4819-97c2-8fb4c53f07bf{fill:#fff;}</style></defs><title>logo</title><path class="a0c85893-5e41-4819-97c2-8fb4c53f07bf" d="M22.6,8.8v6.7l7.3-3.6V5.6a5.20282,5.20282,0,0,0-1.6-4,5.58427,5.58427,0,0,0-4-1.6H5.6a5.20282,5.20282,0,0,0-4,1.6A5.20282,5.20282,0,0,0,0,5.6V67a5.20282,5.20282,0,0,0,1.6,4,5.58427,5.58427,0,0,0,4,1.6H24.4a5.20282,5.20282,0,0,0,4-1.6A5.58427,5.58427,0,0,0,30,67V21.7L15.5,28.8V33l7.1,2.5.1,10.3L6.8,66.5l7.4-24.2L7.4,38.6V8.8A1.36707,1.36707,0,0,1,8.8,7.4H21.2A1.36707,1.36707,0,0,1,22.6,8.8Z" transform="translate(0 0)"/><path class="a0c85893-5e41-4819-97c2-8fb4c53f07bf" d="M70.1,42.6a5.35145,5.35145,0,0,0,1.6-4V5.6a5.20282,5.20282,0,0,0-1.6-4A5.42455,5.42455,0,0,0,66,0H42.3V72.6h7.4V44.2H66A5.82575,5.82575,0,0,0,70.1,42.6Zm-7.2-5.9H49.7V7.3H62.9a1.36707,1.36707,0,0,1,1.4,1.4V35.3A1.36707,1.36707,0,0,1,62.9,36.7Z" transform="translate(0 0)"/><path class="a0c85893-5e41-4819-97c2-8fb4c53f07bf" d="M88.3,72.6h25.1V.3L106,3.9V65.2H91.4A1.36707,1.36707,0,0,1,90,63.8V.3L82.7,4V67a5.46829,5.46829,0,0,0,5.6,5.6Z" transform="translate(0 0)"/><path class="a0c85893-5e41-4819-97c2-8fb4c53f07bf" d="M66,68.2V82.7H57.4a3.62179,3.62179,0,0,0-3.8,3.8V109a3.62179,3.62179,0,0,0,3.8,3.8H71.6V65.4Zm0,39.1H60.2a1.10976,1.10976,0,0,1-1.1-1.1V89.4a1.10976,1.10976,0,0,1,1.1-1.1H66Z" transform="translate(0 0)"/><path class="a0c85893-5e41-4819-97c2-8fb4c53f07bf" d="M14.2,82.8H4.2C1.5,82.8.1,84.3.1,86.9v6l5.5-2.8v-.8a1.10976,1.10976,0,0,1,1.1-1.1h4.7a1.10976,1.10976,0,0,1,1.1,1.1v5.1H3.9A3.6218,3.6218,0,0,0,.1,98.2v1.7h0v9a3.42457,3.42457,0,0,0,.4,1.8.09794.09794,0,0,0,.1.1c.1.1.1.3.2.4.1.2.3.3.4.5a.99842.99842,0,0,0,.5.4c.1.1.2.1.4.2a3.80691,3.80691,0,0,0,1.9.4H18V88.2h0V86.5A3.54383,3.54383,0,0,0,14.2,82.8Zm-1.7,24.5H6.7a1.10976,1.10976,0,0,1-1.1-1.1v-5.1A1.10976,1.10976,0,0,1,6.7,100h5.8Z" transform="translate(0 0)"/><path class="a0c85893-5e41-4819-97c2-8fb4c53f07bf" d="M28.5,112.2a3.03923,3.03923,0,0,1-1.2-1.3A4.89432,4.89432,0,0,0,28.5,112.2Z" transform="translate(0 0)"/><path class="a0c85893-5e41-4819-97c2-8fb4c53f07bf" d="M44.8,82.6v30.2H30.7a4.01256,4.01256,0,0,1-1.5-.3.34914.34914,0,0,1-.2-.1c-.1-.1-.2-.1-.3-.2a3.25038,3.25038,0,0,1-1.3-1.3c0-.1-.1-.1-.1-.2a.34913.34913,0,0,0-.1-.2,4.01256,4.01256,0,0,1-.3-1.5V86.4l5.5-2.8v22.5a1.10976,1.10976,0,0,0,1.1,1.1h5.8V85.4Z" transform="translate(0 0)"/><polygon class="a0c85893-5e41-4819-97c2-8fb4c53f07bf" points="80.7 112.8 86.3 112.8 86.3 87.5 80.7 90.3 80.7 112.8"/><polygon class="a0c85893-5e41-4819-97c2-8fb4c53f07bf" points="80.7 87.4 86.3 84.6 86.3 78.4 80.7 81.2 80.7 87.4"/><path class="a0c85893-5e41-4819-97c2-8fb4c53f07bf" d="M113.4,88.2V86.5a3.62179,3.62179,0,0,0-3.8-3.8H99.2a3.6218,3.6218,0,0,0-3.8,3.8V109a3.6218,3.6218,0,0,0,3.8,3.8h10.4a3.5429,3.5429,0,0,0,3.7-3.8v-1.7h0l.1-19.1Zm-12.5,17.9V89.4a1.10976,1.10976,0,0,1,1.1-1.1h4.8a1.10976,1.10976,0,0,1,1.1,1.1v16.8a1.10976,1.10976,0,0,1-1.1,1.1H102A1.13495,1.13495,0,0,1,100.9,106.1Z" transform="translate(0 0)"/></svg>